<svg xmlns="http://www.w3.org/2000/svg" width="26.828" height="22" viewBox="0 0 26.828 22">
  <g id="Gruppe_26" data-name="Gruppe 26" transform="translate(-2.586 -5)">
    <path id="Pfad_32" data-name="Pfad 32" d="M27,6H5A1,1,0,0,0,4,7V25a1,1,0,0,0,1,1H27a1,1,0,0,0,1-1V7A1,1,0,0,0,27,6Z" fill="none" stroke="#a5a5a5" strokeLinecap="round" strokeLinejoin="round" strokeWidth="2"/>
    <path id="Pfad_33" data-name="Pfad 33" d="M4,21l6.288-6.288a1,1,0,0,1,1.425,0l5.575,5.575a1,1,0,0,0,1.425,0l2.575-2.575a1,1,0,0,1,1.425,0L28,23" fill="none" stroke="#a5a5a5" strokeLinecap="round" strokeLinejoin="round" strokeWidth="2"/>
    <path id="Pfad_34" data-name="Pfad 34" d="M19.5,14A1.5,1.5,0,1,0,18,12.5,1.5,1.5,0,0,0,19.5,14Z" fill="#a5a5a5"/>
  </g>
</svg>
